<svg version="1.1" viewBox="0.0 0.0 192.0 192.0" fill="none" stroke="none" stroke-linecap="square" stroke-miterlimit="10" xmlns:xlink="http://www.w3.org/1999/xlink" xmlns="http://www.w3.org/2000/svg"><clipPath id="p.0"><path d="m0 0l192.0 0l0 192.0l-192.0 0l0 -192.0z" clip-rule="nonzero"/></clipPath><g clip-path="url(#p.0)"><path fill="#000000" fill-opacity="0.0" d="m0 0l192.0 0l0 192.0l-192.0 0z" fill-rule="evenodd"/><path fill="#000000" fill-opacity="0.0" d="m24.1916 70.95145l0 0c0 -26.50967 21.490334 -48.000004 48.000004 -48.000004l0 0c12.730385 0 24.939377 5.057129 33.941124 14.058876c9.001747 9.001747 14.058876 21.210732 14.058876 33.941128l0 0c0 26.509666 -21.490334 48.0 -48.0 48.0l0 0c-26.50967 0 -48.000004 -21.490334 -48.000004 -48.0z" fill-rule="evenodd"/><path stroke="#ffffff" stroke-width="16.0" stroke-linejoin="round" stroke-linecap="butt" d="m24.1916 70.95145l0 0c0 -26.50967 21.490334 -48.000004 48.000004 -48.000004l0 0c12.730385 0 24.939377 5.057129 33.941124 14.058876c9.001747 9.001747 14.058876 21.210732 14.058876 33.941128l0 0c0 26.509666 -21.490334 48.0 -48.0 48.0l0 0c-26.50967 0 -48.000004 -21.490334 -48.000004 -48.0z" fill-rule="evenodd"/><path fill="#000000" fill-opacity="0.0" d="m167.80722 169.04898l-62.393692 -62.3937" fill-rule="evenodd"/><path stroke="#ffffff" stroke-width="16.0" stroke-linejoin="round" stroke-linecap="butt" d="m167.80722 169.04898l-62.393692 -62.3937" fill-rule="evenodd"/></g></svg>